<svg xmlns="http://www.w3.org/2000/svg" width="1100" height="1880" viewBox="0 0 1100 1880" role="img">
<title>Workflow — AI Insider Threat &amp; Account Takeover Detection</title>
<desc>CERT r4.2, FastAPI ingestion, user/service-account behavioral baseline, UBS Transformer anomaly detection, risk scoring, LLM agent for admin interaction, dashboard, and privacy guardrails.</desc>
<defs>
  <marker id="arrow" viewBox="0 0 10 10" refX="8" refY="5" markerWidth="7" markerHeight="7" orient="auto-start-reverse">
    <path d="M2 1 L8 5 L2 9" fill="none" stroke="context-stroke" stroke-width="1.6" stroke-linecap="round" stroke-linejoin="round"/>
  </marker>
  <style>
    text { font-family: Inter, -apple-system, BlinkMacSystemFont, 'Segoe UI', Arial, sans-serif; }
    .small { font-size: 12px; fill: #b9b5aa; }
  </style>
</defs>
<rect width="100%" height="100%" fill="#111210"/>
<text x="550" y="45" text-anchor="middle" fill="#f4f1e8" font-size="28" font-weight="800">AI Behavioral Baseline &amp; Insider Threat Detection Workflow</text>
<text x="550" y="76" text-anchor="middle" fill="#b9b5aa" font-size="15">CERT r4.2 • UBS + Transformer anomaly detection • Risk scoring • LLM Agent cho admin/analyst • Privacy-by-design</text>

<rect x="35" y="105" width="1030" height="220" rx="22" fill="#1d1f1c" stroke="#3b3d38" stroke-width="1"/>
<text x="550" y="139" text-anchor="middle" fill="#d6b25e" font-size="15" font-weight="700" letter-spacing="1.5">LAYER 1 — DATASET &amp; LOG SOURCES</text>
<text x="550" y="163" text-anchor="middle" fill="#b9b5aa" font-size="13">Bộ dữ liệu sử dụng: CERT r4.2; mô phỏng user, service account và hoạt động nội bộ</text>
<g class="">
<rect x="70" y="180" width="120" height="82" rx="14" fill="#30332f" stroke="#77736a" stroke-width="1.2"/>
<text x="130.0" y="210" text-anchor="middle" fill="#f4f1e8" font-size="15" font-weight="700">logon.csv</text>
<text x="130.0" y="233" text-anchor="middle" fill="#b9b5aa" font-size="12">đăng nhập /</text>
<text x="130.0" y="251" text-anchor="middle" fill="#b9b5aa" font-size="12">đăng xuất</text>
</g>
<g class="">
<rect x="210" y="180" width="120" height="82" rx="14" fill="#30332f" stroke="#77736a" stroke-width="1.2"/>
<text x="270.0" y="210" text-anchor="middle" fill="#f4f1e8" font-size="15" font-weight="700">device.csv</text>
<text x="270.0" y="233" text-anchor="middle" fill="#b9b5aa" font-size="12">USB, thiết bị</text>
</g>
<g class="">
<rect x="350" y="180" width="120" height="82" rx="14" fill="#30332f" stroke="#77736a" stroke-width="1.2"/>
<text x="410.0" y="210" text-anchor="middle" fill="#f4f1e8" font-size="15" font-weight="700">file.csv</text>
<text x="410.0" y="233" text-anchor="middle" fill="#b9b5aa" font-size="12">truy cập / copy</text>
<text x="410.0" y="251" text-anchor="middle" fill="#b9b5aa" font-size="12">file</text>
</g>
<g class="">
<rect x="490" y="180" width="120" height="82" rx="14" fill="#30332f" stroke="#77736a" stroke-width="1.2"/>
<text x="550.0" y="210" text-anchor="middle" fill="#f4f1e8" font-size="15" font-weight="700">http.csv</text>
<text x="550.0" y="233" text-anchor="middle" fill="#b9b5aa" font-size="12">web activity</text>
</g>
<g class="">
<rect x="630" y="180" width="120" height="82" rx="14" fill="#30332f" stroke="#77736a" stroke-width="1.2"/>
<text x="690.0" y="210" text-anchor="middle" fill="#f4f1e8" font-size="15" font-weight="700">email.csv</text>
<text x="690.0" y="233" text-anchor="middle" fill="#b9b5aa" font-size="12">mail +</text>
<text x="690.0" y="251" text-anchor="middle" fill="#b9b5aa" font-size="12">attachment</text>
</g>
<g class="">
<rect x="770" y="180" width="120" height="82" rx="14" fill="#30332f" stroke="#77736a" stroke-width="1.2"/>
<text x="830.0" y="210" text-anchor="middle" fill="#f4f1e8" font-size="15" font-weight="700">ldap.csv</text>
<text x="830.0" y="233" text-anchor="middle" fill="#b9b5aa" font-size="12">role, dept,</text>
<text x="830.0" y="251" text-anchor="middle" fill="#b9b5aa" font-size="12">user</text>
</g>
<g class="">
<rect x="910" y="180" width="120" height="82" rx="14" fill="#30332f" stroke="#77736a" stroke-width="1.2"/>
<text x="970.0" y="205" text-anchor="middle" fill="#f4f1e8" font-size="13" font-weight="700">psychometric</text>
<text x="970.0" y="222" text-anchor="middle" fill="#f4f1e8" font-size="13" font-weight="700">.csv</text>
<text x="970.0" y="242" text-anchor="middle" fill="#b9b5aa" font-size="12">ngữ cảnh nhân</text>
<text x="970.0" y="258" text-anchor="middle" fill="#b9b5aa" font-size="12">sự</text>
</g>
<path d="M550,325 L550,365" fill="none" stroke="#77736a" stroke-width="2" marker-end="url(#arrow)"/>
<rect x="35" y="365" width="1030" height="220" rx="22" fill="#1d1f1c" stroke="#3b3d38" stroke-width="1"/>
<text x="550" y="399" text-anchor="middle" fill="#d6b25e" font-size="15" font-weight="700" letter-spacing="1.5">LAYER 2 — INGESTION, NORMALIZATION &amp; PRIVACY GUARDRAILS</text>
<text x="550" y="423" text-anchor="middle" fill="#b9b5aa" font-size="13">FastAPI nhận log, chuẩn hóa schema sự kiện, gom theo user/account, che PII trước khi đưa sang LLM</text>
<g class="">
<rect x="80" y="440" width="190" height="92" rx="14" fill="#25313b" stroke="#77736a" stroke-width="1.2"/>
<text x="175.0" y="470" text-anchor="middle" fill="#f4f1e8" font-size="16" font-weight="700">FastAPI Log API</text>
<text x="175.0" y="493" text-anchor="middle" fill="#b9b5aa" font-size="12">batch / stream ingest</text>
</g>
<g class="">
<rect x="330" y="440" width="190" height="92" rx="14" fill="#25313b" stroke="#77736a" stroke-width="1.2"/>
<text x="425.0" y="470" text-anchor="middle" fill="#f4f1e8" font-size="16" font-weight="700">ETL + Parser</text>
<text x="425.0" y="493" text-anchor="middle" fill="#b9b5aa" font-size="12">schema chung: user,</text>
<text x="425.0" y="511" text-anchor="middle" fill="#b9b5aa" font-size="12">time, host, action,</text>
<text x="425.0" y="529" text-anchor="middle" fill="#b9b5aa" font-size="12">asset</text>
</g>
<g class="">
<rect x="600" y="440" width="190" height="92" rx="14" fill="#25313b" stroke="#77736a" stroke-width="1.2"/>
<text x="695.0" y="470" text-anchor="middle" fill="#f4f1e8" font-size="16" font-weight="700">Privacy Filter</text>
<text x="695.0" y="493" text-anchor="middle" fill="#b9b5aa" font-size="12">pseudonymize, RBAC,</text>
<text x="695.0" y="511" text-anchor="middle" fill="#b9b5aa" font-size="12">audit, retention</text>
</g>
<g class="">
<rect x="830" y="440" width="190" height="92" rx="14" fill="#25313b" stroke="#77736a" stroke-width="1.2"/>
<text x="925.0" y="470" text-anchor="middle" fill="#f4f1e8" font-size="16" font-weight="700">Event Store</text>
<text x="925.0" y="493" text-anchor="middle" fill="#b9b5aa" font-size="12">raw vault + feature</text>
<text x="925.0" y="511" text-anchor="middle" fill="#b9b5aa" font-size="12">store</text>
</g>
<path d="M270,486 L330,486" fill="none" stroke="#77736a" stroke-width="2" marker-end="url(#arrow)"/>
<path d="M520,486 L600,486" fill="none" stroke="#77736a" stroke-width="2" marker-end="url(#arrow)"/>
<path d="M790,486 L830,486" fill="none" stroke="#77736a" stroke-width="2" marker-end="url(#arrow)"/>
<path d="M550,585 L550,625" fill="none" stroke="#77736a" stroke-width="2" marker-end="url(#arrow)"/>
<rect x="35" y="625" width="1030" height="265" rx="22" fill="#1d1f1c" stroke="#3b3d38" stroke-width="1"/>
<text x="550" y="659" text-anchor="middle" fill="#d6b25e" font-size="15" font-weight="700" letter-spacing="1.5">LAYER 3 — FEATURE ENGINEERING &amp; BEHAVIORAL BASELINE</text>
<text x="550" y="683" text-anchor="middle" fill="#b9b5aa" font-size="13">Học “bình thường” theo từng user/tài khoản dịch vụ, đồng thời so với peer group theo role/department</text>
<g class="">
<rect x="70" y="705" width="210" height="82" rx="14" fill="#30332f" stroke="#77736a" stroke-width="1.2"/>
<text x="175.0" y="735" text-anchor="middle" fill="#f4f1e8" font-size="16" font-weight="700">Session &amp; Time Features</text>
<text x="175.0" y="758" text-anchor="middle" fill="#b9b5aa" font-size="12">giờ đăng nhập, độ dài</text>
<text x="175.0" y="776" text-anchor="middle" fill="#b9b5aa" font-size="12">phiên, tần suất</text>
</g>
<g class="">
<rect x="320" y="705" width="210" height="82" rx="14" fill="#30332f" stroke="#77736a" stroke-width="1.2"/>
<text x="425.0" y="735" text-anchor="middle" fill="#f4f1e8" font-size="16" font-weight="700">Asset &amp; Role Context</text>
<text x="425.0" y="758" text-anchor="middle" fill="#b9b5aa" font-size="12">dữ liệu nhạy cảm, ngoài</text>
<text x="425.0" y="776" text-anchor="middle" fill="#b9b5aa" font-size="12">phận sự, LDAP role</text>
</g>
<g class="">
<rect x="570" y="705" width="210" height="82" rx="14" fill="#30332f" stroke="#77736a" stroke-width="1.2"/>
<text x="675.0" y="735" text-anchor="middle" fill="#f4f1e8" font-size="16" font-weight="700">Volume / Rate Features</text>
<text x="675.0" y="758" text-anchor="middle" fill="#b9b5aa" font-size="12">download, email, file</text>
<text x="675.0" y="776" text-anchor="middle" fill="#b9b5aa" font-size="12">copy, web burst</text>
</g>
<g class="">
<rect x="820" y="705" width="210" height="82" rx="14" fill="#30332f" stroke="#77736a" stroke-width="1.2"/>
<text x="925.0" y="735" text-anchor="middle" fill="#f4f1e8" font-size="16" font-weight="700">Geo / Device / Host</text>
<text x="925.0" y="758" text-anchor="middle" fill="#b9b5aa" font-size="12">host lạ, impossible</text>
<text x="925.0" y="776" text-anchor="middle" fill="#b9b5aa" font-size="12">travel, USB lạ</text>
</g>
<g class="">
<rect x="190" y="805" width="210" height="82" rx="14" fill="#34402f" stroke="#77736a" stroke-width="1.2"/>
<text x="295.0" y="835" text-anchor="middle" fill="#f4f1e8" font-size="16" font-weight="700">Per-user Baseline</text>
<text x="295.0" y="858" text-anchor="middle" fill="#b9b5aa" font-size="12">baseline riêng cho user +</text>
<text x="295.0" y="876" text-anchor="middle" fill="#b9b5aa" font-size="12">service account</text>
</g>
<g class="">
<rect x="610" y="805" width="210" height="82" rx="14" fill="#34402f" stroke="#77736a" stroke-width="1.2"/>
<text x="715.0" y="835" text-anchor="middle" fill="#f4f1e8" font-size="16" font-weight="700">Peer-group Baseline</text>
<text x="715.0" y="858" text-anchor="middle" fill="#b9b5aa" font-size="12">so sánh với nhóm cùng role</text>
<text x="715.0" y="876" text-anchor="middle" fill="#b9b5aa" font-size="12">/ department</text>
</g>
<!-- Layer 3 connectors adjusted so arrows terminate on target boxes -->
<path d="M175,787 L175,796 L295,796 L295,805" fill="none" stroke="#77736a" stroke-width="2" marker-end="url(#arrow)"/>
<path d="M425,787 L425,796 L295,796 L295,805" fill="none" stroke="#77736a" stroke-width="2" marker-end="url(#arrow)"/>
<path d="M675,787 L675,796 L715,796 L715,805" fill="none" stroke="#77736a" stroke-width="2" marker-end="url(#arrow)"/>
<path d="M925,787 L925,796 L715,796 L715,805" fill="none" stroke="#77736a" stroke-width="2" marker-end="url(#arrow)"/>
<path d="M295,887 L295,910 L550,910" fill="none" stroke="#77736a" stroke-width="2"/>
<path d="M715,887 L715,910 L550,910" fill="none" stroke="#77736a" stroke-width="2"/>
<path d="M550,910 L550,930" fill="none" stroke="#77736a" stroke-width="2" marker-end="url(#arrow)"/>
<rect x="35" y="930" width="1030" height="315" rx="22" fill="#1d1f1c" stroke="#3b3d38" stroke-width="1"/>
<text x="550" y="964" text-anchor="middle" fill="#d6b25e" font-size="15" font-weight="700" letter-spacing="1.5">LAYER 4 — ANOMALY DETECTION ENGINE</text>
<text x="550" y="988" text-anchor="middle" fill="#b9b5aa" font-size="13">Theo hướng UBS → Transformer Encoder → reconstruction error; kết hợp detector và luật nghiệp vụ bảo mật</text>
<g class="">
<rect x="80" y="1010" width="210" height="92" rx="14" fill="#372f44" stroke="#77736a" stroke-width="1.2"/>
<text x="185.0" y="1040" text-anchor="middle" fill="#f4f1e8" font-size="16" font-weight="700">User-Based Sequencing</text>
<text x="185.0" y="1063" text-anchor="middle" fill="#b9b5aa" font-size="12">chuỗi hành vi theo</text>
<text x="185.0" y="1081" text-anchor="middle" fill="#b9b5aa" font-size="12">user/service account</text>
</g>
<g class="">
<rect x="330" y="1010" width="210" height="92" rx="14" fill="#372f44" stroke="#77736a" stroke-width="1.2"/>
<text x="435.0" y="1040" text-anchor="middle" fill="#f4f1e8" font-size="16" font-weight="700">Transformer Encoder</text>
<text x="435.0" y="1063" text-anchor="middle" fill="#b9b5aa" font-size="12">học baseline benign theo</text>
<text x="435.0" y="1081" text-anchor="middle" fill="#b9b5aa" font-size="12">chuỗi thời gian</text>
</g>
<g class="">
<rect x="580" y="1010" width="210" height="92" rx="14" fill="#372f44" stroke="#77736a" stroke-width="1.2"/>
<text x="685.0" y="1040" text-anchor="middle" fill="#f4f1e8" font-size="16" font-weight="700">Reconstruction Error</text>
<text x="685.0" y="1063" text-anchor="middle" fill="#b9b5aa" font-size="12">anomaly score thô theo</text>
<text x="685.0" y="1081" text-anchor="middle" fill="#b9b5aa" font-size="12">từng event/session</text>
</g>
<g class="">
<rect x="830" y="1010" width="210" height="92" rx="14" fill="#372f44" stroke="#77736a" stroke-width="1.2"/>
<text x="935.0" y="1040" text-anchor="middle" fill="#f4f1e8" font-size="16" font-weight="700">OCSVM / LOF / iForest</text>
<text x="935.0" y="1063" text-anchor="middle" fill="#b9b5aa" font-size="12">ensemble detector để ổn</text>
<text x="935.0" y="1081" text-anchor="middle" fill="#b9b5aa" font-size="12">định cảnh báo</text>
</g>
<path d="M290,1056 L330,1056" fill="none" stroke="#b79ce3" stroke-width="2" marker-end="url(#arrow)"/>
<path d="M540,1056 L580,1056" fill="none" stroke="#b79ce3" stroke-width="2" marker-end="url(#arrow)"/>
<path d="M790,1056 L830,1056" fill="none" stroke="#b79ce3" stroke-width="2" marker-end="url(#arrow)"/>
<g class="">
<rect x="95" y="1140" width="280" height="78" rx="14" fill="#442f2f" stroke="#77736a" stroke-width="1.2"/>
<text x="235.0" y="1170" text-anchor="middle" fill="#f4f1e8" font-size="15" font-weight="700">Security Rule Checks</text>
<text x="235.0" y="1193" text-anchor="middle" fill="#b9b5aa" font-size="12">geo-impossible • privilege</text>
<text x="235.0" y="1211" text-anchor="middle" fill="#b9b5aa" font-size="12">escalation • sensitive access</text>
</g>
<g class="">
<rect x="410" y="1140" width="280" height="78" rx="14" fill="#442f2f" stroke="#77736a" stroke-width="1.2"/>
<text x="550.0" y="1170" text-anchor="middle" fill="#f4f1e8" font-size="15" font-weight="700">Abnormal Data Movement</text>
<text x="550.0" y="1193" text-anchor="middle" fill="#b9b5aa" font-size="12">download spike • USB copy • email</text>
<text x="550.0" y="1211" text-anchor="middle" fill="#b9b5aa" font-size="12">attachment burst</text>
</g>
<g class="">
<rect x="725" y="1140" width="280" height="78" rx="14" fill="#442f2f" stroke="#77736a" stroke-width="1.2"/>
<text x="865.0" y="1170" text-anchor="middle" fill="#f4f1e8" font-size="15" font-weight="700">Hybrid Decision</text>
<text x="865.0" y="1193" text-anchor="middle" fill="#b9b5aa" font-size="12">ML anomaly + rule hit + baseline</text>
<text x="865.0" y="1211" text-anchor="middle" fill="#b9b5aa" font-size="12">deviation</text>
</g>
<path d="M550,1245 L550,1285" fill="none" stroke="#77736a" stroke-width="2" marker-end="url(#arrow)"/>
<rect x="35" y="1285" width="1030" height="210" rx="22" fill="#1d1f1c" stroke="#3b3d38" stroke-width="1"/>
<text x="550" y="1319" text-anchor="middle" fill="#d6b25e" font-size="15" font-weight="700" letter-spacing="1.5">LAYER 5 — RISK SCORING &amp; EXPLAINABLE EVIDENCE</text>
<text x="550" y="1343" text-anchor="middle" fill="#b9b5aa" font-size="13">Không chỉ trả về số: tạo bằng chứng, nguyên nhân lệch chuẩn, mức ưu tiên điều tra</text>
<g class="">
<rect x="85" y="1360" width="190" height="88" rx="14" fill="#3c372d" stroke="#77736a" stroke-width="1.2"/>
<text x="180.0" y="1390" text-anchor="middle" fill="#f4f1e8" font-size="15" font-weight="700">Risk Score</text>
<text x="180.0" y="1413" text-anchor="middle" fill="#b9b5aa" font-size="12">user risk, asset</text>
<text x="180.0" y="1431" text-anchor="middle" fill="#b9b5aa" font-size="12">criticality, detector</text>
<text x="180.0" y="1449" text-anchor="middle" fill="#b9b5aa" font-size="12">confidence</text>
</g>
<g class="">
<rect x="335" y="1360" width="190" height="88" rx="14" fill="#3c372d" stroke="#77736a" stroke-width="1.2"/>
<text x="430.0" y="1390" text-anchor="middle" fill="#f4f1e8" font-size="15" font-weight="700">Evidence Pack</text>
<text x="430.0" y="1413" text-anchor="middle" fill="#b9b5aa" font-size="12">timeline, top features,</text>
<text x="430.0" y="1431" text-anchor="middle" fill="#b9b5aa" font-size="12">log snippets đã mask</text>
<text x="430.0" y="1449" text-anchor="middle" fill="#b9b5aa" font-size="12">PII</text>
</g>
<g class="">
<rect x="585" y="1360" width="190" height="88" rx="14" fill="#3c372d" stroke="#77736a" stroke-width="1.2"/>
<text x="680.0" y="1384" text-anchor="middle" fill="#f4f1e8" font-size="14" font-weight="700">Natural-language</text>
<text x="680.0" y="1402" text-anchor="middle" fill="#f4f1e8" font-size="14" font-weight="700">Explanation</text>
<text x="680.0" y="1424" text-anchor="middle" fill="#b9b5aa" font-size="12">diễn giải cho</text>
<text x="680.0" y="1442" text-anchor="middle" fill="#b9b5aa" font-size="12">analyst/admin hiểu được</text>
</g>
<g class="">
<rect x="835" y="1360" width="190" height="88" rx="14" fill="#3c372d" stroke="#77736a" stroke-width="1.2"/>
<text x="930.0" y="1390" text-anchor="middle" fill="#f4f1e8" font-size="15" font-weight="700">Priority Queue</text>
<text x="930.0" y="1413" text-anchor="middle" fill="#b9b5aa" font-size="12">P1/P2/P3, SLA và lý do</text>
<text x="930.0" y="1431" text-anchor="middle" fill="#b9b5aa" font-size="12">ưu tiên</text>
</g>
<path d="M275,1404 L335,1404" fill="none" stroke="#d6b25e" stroke-width="2" marker-end="url(#arrow)"/>
<path d="M525,1404 L585,1404" fill="none" stroke="#d6b25e" stroke-width="2" marker-end="url(#arrow)"/>
<path d="M775,1404 L835,1404" fill="none" stroke="#d6b25e" stroke-width="2" marker-end="url(#arrow)"/>
<path d="M550,1495 L550,1535" fill="none" stroke="#77736a" stroke-width="2" marker-end="url(#arrow)"/>
<rect x="35" y="1535" width="1030" height="295" rx="22" fill="#1d1f1c" stroke="#3b3d38" stroke-width="1"/>
<text x="550" y="1569" text-anchor="middle" fill="#d6b25e" font-size="15" font-weight="700" letter-spacing="1.5">LAYER 6 — LLM AGENT, DASHBOARD &amp; HUMAN-IN-THE-LOOP</text>
<text x="550" y="1593" text-anchor="middle" fill="#b9b5aa" font-size="13">OpenAI/Claude hỗ trợ hỏi đáp, tóm tắt, playbook; admin phê duyệt trước hành động nhạy cảm</text>
<g class="">
<rect x="80" y="1610" width="230" height="92" rx="14" fill="#293848" stroke="#77736a" stroke-width="1.2"/>
<text x="195.0" y="1640" text-anchor="middle" fill="#f4f1e8" font-size="15" font-weight="700">Analyst Dashboard</text>
<text x="195.0" y="1663" text-anchor="middle" fill="#b9b5aa" font-size="12">triage queue, timeline,</text>
<text x="195.0" y="1681" text-anchor="middle" fill="#b9b5aa" font-size="12">graph, drill-down log</text>
</g>
<g class="">
<rect x="350" y="1610" width="250" height="92" rx="14" fill="#293848" stroke="#77736a" stroke-width="1.2"/>
<text x="475.0" y="1640" text-anchor="middle" fill="#f4f1e8" font-size="15" font-weight="700">LLM Agent for Admin</text>
<text x="475.0" y="1663" text-anchor="middle" fill="#b9b5aa" font-size="12">chat Q&amp;A, summarize</text>
<text x="475.0" y="1681" text-anchor="middle" fill="#b9b5aa" font-size="12">suggest playbook</text>
</g>
<g class="">
<rect x="640" y="1610" width="210" height="92" rx="14" fill="#293848" stroke="#77736a" stroke-width="1.2"/>
<text x="745.0" y="1640" text-anchor="middle" fill="#f4f1e8" font-size="15" font-weight="700">Case Management</text>
<text x="745.0" y="1663" text-anchor="middle" fill="#b9b5aa" font-size="12">assign, comment,</text>
<text x="745.0" y="1681" text-anchor="middle" fill="#b9b5aa" font-size="12">escalation, close case</text>
</g>
<g class="">
<rect x="885" y="1610" width="155" height="92" rx="14" fill="#293848" stroke="#77736a" stroke-width="1.2"/>
<text x="962.5" y="1640" text-anchor="middle" fill="#f4f1e8" font-size="15" font-weight="700">Actions</text>
<text x="962.5" y="1663" text-anchor="middle" fill="#b9b5aa" font-size="12">MFA reset, disable</text>
<text x="962.5" y="1681" text-anchor="middle" fill="#b9b5aa" font-size="12">token, ticket</text>
</g>
<path d="M310,1656 L350,1656" fill="none" stroke="#83a8d8" stroke-width="2" marker-end="url(#arrow)"/>
<path d="M600,1656 L640,1656" fill="none" stroke="#83a8d8" stroke-width="2" marker-end="url(#arrow)"/>
<path d="M850,1656 L885,1656" fill="none" stroke="#83a8d8" stroke-width="2" marker-end="url(#arrow)"/>
<g class="">
<rect x="160" y="1725" width="780" height="86" rx="14" fill="#29342c" stroke="#77736a" stroke-width="1.2"/>
<text x="550.0" y="1753" text-anchor="middle" fill="#f4f1e8" font-size="16" font-weight="700">Feedback Loop</text>
<text x="550.0" y="1775" text-anchor="middle" fill="#b9b5aa" font-size="11.5">admin/analyst verdict → tune threshold → retrain baseline</text>
<text x="550.0" y="1792" text-anchor="middle" fill="#b9b5aa" font-size="11.5">raw PII không gửi vào LLM nếu không có quyền phù hợp</text>
</g>
<path d="M550,1702 L550,1725" fill="none" stroke="#8fbf88" stroke-width="2" marker-end="url(#arrow)"/>
</svg>